<svg width="120" height="24" viewBox="0 0 120 24" fill="none" xmlns="http://www.w3.org/2000/svg">
<path d="M6 18.4148C8.87109 18.4148 11.3906 16.779 11.3906 13.5657C11.3906 10.4109 8.95312 9.31256 6.63281 8.35443C4.51172 7.46641 2.48437 6.66018 2.48437 4.48686C2.48437 2.51217 4.11328 1.49562 5.85937 1.49562C7.34766 1.49562 8.47266 1.93963 9.85547 3.40019L10.8984 2.34859C9.65625 0.95813 8.05078 0 5.82422 0C3.15234 0 0.902344 1.68257 0.902344 4.59202C0.902344 7.58325 3.25781 8.63486 5.70703 9.6631C7.80469 10.5511 9.82031 11.4158 9.82031 13.6125C9.82031 15.6689 8.09766 16.9192 5.89453 16.9192C3.92578 16.9192 2.37891 15.9611 1.18359 14.4421L0 15.6222C1.35937 17.2347 3.55078 18.4148 6 18.4148Z" fill="#305367"/>
<path d="M18.7566 18.4148C21.5925 18.4148 23.6198 16.8257 23.6198 14.0682V5.80721H22.1316V14.0331C22.1316 15.9961 20.6784 16.9426 18.7566 16.9426C16.8581 16.9426 15.3816 15.9961 15.3816 14.0331V5.80721H13.8933V14.0682C13.8933 16.8374 15.9323 18.4148 18.7566 18.4148Z" fill="#305367"/>
<path d="M26.9194 24H28.4428V15.7157C29.4858 17.3398 31.3373 18.4148 33.5756 18.4148C36.9741 18.4148 39.8569 15.5404 39.8569 11.9883C39.8569 8.44791 36.9741 5.57351 33.5756 5.57351C31.3373 5.57351 29.4858 6.64849 28.4428 8.27264V5.80721H26.9194V24ZM33.3881 16.9426C30.6342 16.9426 28.4428 14.7342 28.4428 11.9883C28.4428 9.26582 30.6459 7.05745 33.3881 7.05745C36.1186 7.05745 38.3334 9.26582 38.3334 11.9883C38.3334 14.7225 36.1186 16.9426 33.3881 16.9426Z" fill="#305367"/>
<path d="M42.3947 24H43.9181V15.7157C44.9611 17.3398 46.8126 18.4148 49.0509 18.4148C52.4494 18.4148 55.3322 15.5404 55.3322 11.9883C55.3322 8.44791 52.4494 5.57351 49.0509 5.57351C46.8126 5.57351 44.9611 6.64849 43.9181 8.27264V5.80721H42.3947V24ZM48.8634 16.9426C46.1095 16.9426 43.9181 14.7342 43.9181 11.9883C43.9181 9.26582 46.1212 7.05745 48.8634 7.05745C51.5939 7.05745 53.8087 9.26582 53.8087 11.9883C53.8087 14.7225 51.5939 16.9426 48.8634 16.9426Z" fill="#305367"/>
<path d="M57.87 18.1811H59.3934V0.23369H57.87V18.1811Z" fill="#305367"/>
<path d="M71.2125 5.80721L67.1812 16.2064L62.9977 5.80721H61.2984L66.3023 17.9241L63.8648 24H65.4937L72.9234 5.80721H71.2125Z" fill="#305367"/>
<path d="M88.292 17.9474H91.9365L85.0693 0H81.0146L74.1592 17.9474H77.8037L79.1396 14.2668H86.9561L88.292 17.9474ZM80.2061 11.3223L83.0537 3.48199L85.8896 11.3223H80.2061Z" fill="#0E8086"/>
<path d="M94.5789 17.9474H97.9187V0H94.5789V17.9474Z" fill="#0E8086"/>
<path d="M101.68 17.9474H105.02V0H101.68V17.9474Z" fill="#0E8086"/>
<path d="M116.481 5.57351L113.622 14.0565L110.751 5.57351H107.083L111.852 17.2113L109.251 23.7663H112.684L119.985 5.57351H116.481Z" fill="#0E8086"/>
</svg>
